<svg xmlns="http://www.w3.org/2000/svg" width="35.853" height="29.153" viewBox="0 0 35.853 29.153">
  <g id="Twitter_Logo_WhiteOnImage" transform="translate(-75.1 -98.4)">
    <g id="Logo__x2014__FIXED" transform="translate(75.1 98.4)">
      <g id="Group_378" data-name="Group 378" transform="translate(0 0)">
        <path id="Path_132" data-name="Path 132" d="M86.362,127.553c13.529,0,20.932-11.219,20.932-20.932,0-.316,0-.631-.014-.947a14.988,14.988,0,0,0,3.673-3.816,14.91,14.91,0,0,1-4.232,1.162,7.4,7.4,0,0,0,3.242-4.074,14.633,14.633,0,0,1-4.677,1.779A7.359,7.359,0,0,0,92.56,105.76a8.131,8.131,0,0,0,.187,1.679,20.891,20.891,0,0,1-15.165-7.69,7.386,7.386,0,0,0,2.281,9.828,7.441,7.441,0,0,1-3.328-.918v.1a7.372,7.372,0,0,0,5.9,7.216,7.4,7.4,0,0,1-3.314.129,7.356,7.356,0,0,0,6.872,5.107,14.755,14.755,0,0,1-9.139,3.156,14.158,14.158,0,0,1-1.75-.1,20.927,20.927,0,0,0,11.262,3.285" transform="translate(-75.1 -98.4)" fill="#fff"/>
      </g>
    </g>
  </g>
</svg>
